<?xml version="1.0" encoding="UTF-8" standalone="no"?>
<svg width="33px" height="33px" viewBox="0 0 33 33" version="1.1" xmlns="http://www.w3.org/2000/svg" xmlns:xlink="http://www.w3.org/1999/xlink" xmlns:sketch="http://www.bohemiancoding.com/sketch/ns">
    <!-- Generator: Sketch 3.5.1 (25234) - http://www.bohemiancoding.com/sketch -->
    <title>1268-instagram@2x</title>
    <desc>Created with Sketch.</desc>
    <defs></defs>
    <g id="Page-1" stroke="none" stroke-width="1" fill="none" fill-rule="evenodd" sketch:type="MSPage">
        <g id="1268-instagram@2x" sketch:type="MSLayerGroup" transform="translate(-1.000000, -1.000000)" fill="#000000">
            <g id="Page-1" sketch:type="MSShapeGroup">
                <g id="Glyphish-8-Icons">
                    <g id="1268-instagram@2x" transform="translate(0.036996, 0.860499)">
                        <g id="_x31_268-instagram_x40_2x.png">
                            <path d="M29.307,0.999 L4.689,0.999 C2.651,0.999 0.998,2.651 0.998,4.69 L0.998,29.305 C0.998,31.345 2.651,32.998 4.689,32.998 L29.306,32.998 C31.345,32.998 32.998,31.345 32.998,29.305 L32.998,4.69 C32.999,2.651 31.346,0.999 29.307,0.999 L29.307,0.999 L29.307,0.999 Z M16.998,10.845 C20.397,10.845 23.152,13.6 23.152,16.998 C23.152,20.396 20.397,23.152 16.998,23.152 C13.6,23.152 10.844,20.396 10.844,16.998 C10.844,13.6 13.6,10.845 16.998,10.845 L16.998,10.845 L16.998,10.845 Z M29.307,28.076 C29.307,28.754 28.756,29.305 28.076,29.305 L5.922,29.305 C5.241,29.305 4.69,28.753 4.69,28.076 L4.69,14.536 L7.476,14.536 C7.273,15.324 7.153,16.147 7.153,16.998 C7.153,22.437 11.561,26.845 16.999,26.845 C22.437,26.845 26.845,22.438 26.845,16.998 C26.845,16.147 26.726,15.324 26.523,14.536 L29.308,14.536 L29.308,28.076 L29.307,28.076 L29.307,28.076 Z M29.307,9.614 C29.307,10.293 28.756,10.844 28.076,10.844 L24.385,10.844 C23.704,10.844 23.154,10.292 23.154,9.614 L23.154,5.921 C23.154,5.242 23.705,4.691 24.385,4.691 L28.076,4.691 C28.757,4.691 29.307,5.243 29.307,5.921 L29.307,9.614 L29.307,9.614 L29.307,9.614 Z" id="Shape"></path>
                        </g>
                    </g>
                </g>
            </g>
        </g>
    </g>
</svg>