<?xml version="1.0" encoding="UTF-8" standalone="no"?>
<svg width="32px" height="27px" viewBox="0 0 32 27" version="1.1" xmlns="http://www.w3.org/2000/svg" xmlns:xlink="http://www.w3.org/1999/xlink" xmlns:sketch="http://www.bohemiancoding.com/sketch/ns">
    <!-- Generator: Sketch 3.5.1 (25234) - http://www.bohemiancoding.com/sketch -->
    <title>1282-twitter@2x</title>
    <desc>Created with Sketch.</desc>
    <defs></defs>
    <g id="Page-1" stroke="none" stroke-width="1" fill="none" fill-rule="evenodd" sketch:type="MSPage">
        <g id="1282-twitter@2x" sketch:type="MSLayerGroup" transform="translate(0.000000, -1.000000)" fill="#000000">
            <g id="Page-1" sketch:type="MSShapeGroup">
                <g id="Glyphish-8-Icons">
                    <g id="1282-twitter@2x" transform="translate(0.036996, 0.860499)">
                        <g id="_x31_282-twitter_x40_2x.png">
                            <path d="M31.117,1.478 C29.848,2.231 28.444,2.777 26.948,3.072 C25.75,1.796 24.044,0.998 22.156,0.998 C18.53,0.998 15.591,3.937 15.591,7.563 C15.591,8.078 15.649,8.579 15.761,9.06 C10.304,8.786 5.467,6.171 2.229,2.201 C1.664,3.169 1.34,4.298 1.34,5.501 C1.34,7.779 2.427,9.788 4.189,10.966 C3.113,10.932 2.286,10.636 1.144,10.145 L1.144,10.227 C1.144,13.409 3.479,16.062 6.481,16.665 C5.931,16.814 5.386,16.895 4.788,16.895 C4.365,16.895 3.972,16.852 3.571,16.776 C4.406,19.384 6.84,21.283 9.713,21.337 C7.466,23.097 4.64,24.148 1.564,24.148 C1.033,24.148 0.513,24.117 -3.55271368e-15,24.055 C2.905,25.917 6.357,27.004 10.065,27.004 C22.14,27.004 28.743,17.001 28.743,8.325 C28.743,8.04 28.739,7.757 28.726,7.475 C30.009,6.549 31.121,5.393 32.001,4.077 C30.824,4.599 29.558,4.952 28.23,5.111 C29.586,4.297 30.627,3.011 31.117,1.478 L31.117,1.478 L31.117,1.478 Z" id="Shape"></path>
                        </g>
                    </g>
                </g>
            </g>
        </g>
    </g>
</svg>